<svg width="1032" height="520" viewBox="0 0 1032 520" fill="none" xmlns="http://www.w3.org/2000/svg">
    <g filter="url(#filter0_d_57_16)">
        <rect width="1024" height="512" transform="translate(4)" fill="url(#paint0_linear_57_16)"/>
        <g filter="url(#filter1_d_57_16)">
            <path d="M470.398 182.506C467.34 170.484 463.885 163.554 455.398 154.506C449.574 148.297 446.075 143.877 437.898 141.506C435.283 140.748 432.164 140.655 429.068 140.9L425.899 144.006C416.135 153.574 416.298 162.549 414.399 175.506C412.208 190.444 414.271 199.351 417.899 214.006C423.501 236.641 433.214 247.125 445.399 267.006C468.976 305.479 515.823 351.489 534.471 369.128C540.357 374.526 540.843 377.54 532.899 382.883L515.399 394.63C507.836 399.733 504.037 399.375 497.96 393.618C479.304 375.97 432.471 329.971 408.899 291.506C396.714 271.625 387.001 261.141 381.399 238.506C377.771 223.851 375.708 214.944 377.899 200.006C379.798 187.049 382.355 179.546 389.399 168.506C396.751 156.982 414.398 144.006 414.398 144.006L450.898 119.506C459.023 115.129 465.534 114.436 474.398 117.006C482.575 119.377 486.074 123.797 491.898 130.006C500.385 139.054 505.211 152.719 506.898 158.006C510.131 168.281 508.194 172.487 499.959 178.006L483.571 189.006C475.307 194.579 472.818 192.128 470.398 182.506Z" fill="url(#paint1_linear_57_16)"/>
            <path d="M585.899 329.506L549.399 354.006L571.399 326.006C571.399 326.006 586.216 307.526 593.899 294.506C602.333 280.212 606.828 271.81 611.899 256.006C616.52 241.603 619.987 233.121 619.399 218.006C618.907 205.37 616.242 198.382 611.899 186.506C607.699 175.025 604.288 168.929 597.899 158.506C595.117 153.969 591.212 148.576 587.75 144.006C582.009 136.548 581.725 132.723 590.327 127.006L604.48 117.506C613.236 111.528 617.639 110.985 623.871 119.006C627.424 123.678 631.515 129.302 634.399 134.006C640.788 144.429 644.199 150.525 648.399 162.006C652.742 173.882 655.407 180.871 655.899 193.506C656.487 208.621 653.02 217.103 648.399 231.506C643.328 247.31 638.833 255.712 630.399 270.006C622.716 283.026 607.899 301.506 607.899 301.506L585.899 329.506Z" fill="url(#paint2_linear_57_16)"/>
        </g>
        <g filter="url(#filter2_d_57_16)">
            <path d="M666.2 415C665.528 415 664.87 415.199 664.311 415.573C663.752 415.947 663.316 416.478 663.059 417.099C662.801 417.72 662.734 418.404 662.865 419.063C662.997 419.723 663.32 420.329 663.796 420.804C664.271 421.28 664.877 421.603 665.537 421.735C666.196 421.866 666.88 421.799 667.501 421.541C668.122 421.284 668.653 420.848 669.027 420.289C669.401 419.73 669.6 419.072 669.6 418.4C669.6 417.498 669.242 416.633 668.604 415.996C667.967 415.358 667.102 415 666.2 415ZM645.8 415H635.6C634.698 415 633.833 415.358 633.196 415.996C632.558 416.633 632.2 417.498 632.2 418.4C632.2 419.302 632.558 420.167 633.196 420.804C633.833 421.442 634.698 421.8 635.6 421.8H645.8C646.702 421.8 647.567 421.442 648.204 420.804C648.842 420.167 649.2 419.302 649.2 418.4C649.2 417.498 648.842 416.633 648.204 415.996C647.567 415.358 646.702 415 645.8 415ZM676.4 415C675.728 415 675.07 415.199 674.511 415.573C673.952 415.947 673.516 416.478 673.259 417.099C673.001 417.72 672.934 418.404 673.065 419.063C673.197 419.723 673.52 420.329 673.996 420.804C674.471 421.28 675.077 421.603 675.737 421.735C676.396 421.866 677.08 421.799 677.701 421.541C678.322 421.284 678.853 420.848 679.227 420.289C679.601 419.73 679.8 419.072 679.8 418.4C679.8 417.498 679.442 416.633 678.804 415.996C678.167 415.358 677.302 415 676.4 415ZM666.2 394.6C665.528 394.6 664.87 394.799 664.311 395.173C663.752 395.547 663.316 396.078 663.059 396.699C662.801 397.32 662.734 398.004 662.865 398.663C662.997 399.323 663.32 399.929 663.796 400.404C664.271 400.88 664.877 401.203 665.537 401.335C666.196 401.466 666.88 401.399 667.501 401.141C668.122 400.884 668.653 400.448 669.027 399.889C669.401 399.33 669.6 398.672 669.6 398C669.6 397.098 669.242 396.233 668.604 395.596C667.967 394.958 667.102 394.6 666.2 394.6ZM645.8 394.6H635.6C634.698 394.6 633.833 394.958 633.196 395.596C632.558 396.233 632.2 397.098 632.2 398C632.2 398.902 632.558 399.767 633.196 400.404C633.833 401.042 634.698 401.4 635.6 401.4H645.8C646.702 401.4 647.567 401.042 648.204 400.404C648.842 399.767 649.2 398.902 649.2 398C649.2 397.098 648.842 396.233 648.204 395.596C647.567 394.958 646.702 394.6 645.8 394.6ZM676.4 374.2C675.728 374.2 675.07 374.399 674.511 374.773C673.952 375.147 673.516 375.678 673.259 376.299C673.001 376.92 672.934 377.604 673.065 378.263C673.197 378.923 673.52 379.529 673.996 380.004C674.471 380.48 675.077 380.803 675.737 380.935C676.396 381.066 677.08 380.999 677.701 380.741C678.322 380.484 678.853 380.048 679.227 379.489C679.601 378.93 679.8 378.272 679.8 377.6C679.8 376.698 679.442 375.833 678.804 375.196C678.167 374.558 677.302 374.2 676.4 374.2ZM676.4 394.6C675.728 394.6 675.07 394.799 674.511 395.173C673.952 395.547 673.516 396.078 673.259 396.699C673.001 397.32 672.934 398.004 673.065 398.663C673.197 399.323 673.52 399.929 673.996 400.404C674.471 400.88 675.077 401.203 675.737 401.335C676.396 401.466 677.08 401.399 677.701 401.141C678.322 400.884 678.853 400.448 679.227 399.889C679.601 399.33 679.8 398.672 679.8 398C679.8 397.098 679.442 396.233 678.804 395.596C678.167 394.958 677.302 394.6 676.4 394.6ZM690 374.2C690 371.495 688.925 368.9 687.012 366.988C685.1 365.075 682.505 364 679.8 364H632.2C629.495 364 626.9 365.075 624.988 366.988C623.075 368.9 622 371.495 622 374.2V381C622.015 383.516 622.96 385.938 624.652 387.8C622.96 389.662 622.015 392.084 622 394.6V401.4C622.015 403.916 622.96 406.338 624.652 408.2C622.96 410.062 622.015 412.484 622 415V421.8C622 424.505 623.075 427.1 624.988 429.012C626.9 430.925 629.495 432 632.2 432H679.8C682.505 432 685.1 430.925 687.012 429.012C688.925 427.1 690 424.505 690 421.8V415C689.985 412.484 689.04 410.062 687.348 408.2C689.04 406.338 689.985 403.916 690 401.4V394.6C689.985 392.084 689.04 389.662 687.348 387.8C689.04 385.938 689.985 383.516 690 381V374.2ZM683.2 421.8C683.2 422.702 682.842 423.567 682.204 424.204C681.567 424.842 680.702 425.2 679.8 425.2H632.2C631.298 425.2 630.433 424.842 629.796 424.204C629.158 423.567 628.8 422.702 628.8 421.8V415C628.8 414.098 629.158 413.233 629.796 412.596C630.433 411.958 631.298 411.6 632.2 411.6H679.8C680.702 411.6 681.567 411.958 682.204 412.596C682.842 413.233 683.2 414.098 683.2 415V421.8ZM683.2 401.4C683.2 402.302 682.842 403.167 682.204 403.804C681.567 404.442 680.702 404.8 679.8 404.8H632.2C631.298 404.8 630.433 404.442 629.796 403.804C629.158 403.167 628.8 402.302 628.8 401.4V394.6C628.8 393.698 629.158 392.833 629.796 392.196C630.433 391.558 631.298 391.2 632.2 391.2H679.8C680.702 391.2 681.567 391.558 682.204 392.196C682.842 392.833 683.2 393.698 683.2 394.6V401.4ZM683.2 381C683.2 381.902 682.842 382.767 682.204 383.404C681.567 384.042 680.702 384.4 679.8 384.4H632.2C631.298 384.4 630.433 384.042 629.796 383.404C629.158 382.767 628.8 381.902 628.8 381V374.2C628.8 373.298 629.158 372.433 629.796 371.796C630.433 371.158 631.298 370.8 632.2 370.8H679.8C680.702 370.8 681.567 371.158 682.204 371.796C682.842 372.433 683.2 373.298 683.2 374.2V381ZM666.2 374.2C665.528 374.2 664.87 374.399 664.311 374.773C663.752 375.147 663.316 375.678 663.059 376.299C662.801 376.92 662.734 377.604 662.865 378.263C662.997 378.923 663.32 379.529 663.796 380.004C664.271 380.48 664.877 380.803 665.537 380.935C666.196 381.066 666.88 380.999 667.501 380.741C668.122 380.484 668.653 380.048 669.027 379.489C669.401 378.93 669.6 378.272 669.6 377.6C669.6 376.698 669.242 375.833 668.604 375.196C667.967 374.558 667.102 374.2 666.2 374.2ZM645.8 374.2H635.6C634.698 374.2 633.833 374.558 633.196 375.196C632.558 375.833 632.2 376.698 632.2 377.6C632.2 378.502 632.558 379.367 633.196 380.004C633.833 380.642 634.698 381 635.6 381H645.8C646.702 381 647.567 380.642 648.204 380.004C648.842 379.367 649.2 378.502 649.2 377.6C649.2 376.698 648.842 375.833 648.204 375.196C647.567 374.558 646.702 374.2 645.8 374.2Z" fill="url(#paint3_linear_57_16)"/>
        </g>
    </g>
    <defs>
        <filter id="filter0_d_57_16" x="0" y="0" width="1032" height="520" filterUnits="userSpaceOnUse" color-interpolation-filters="sRGB">
            <feFlood flood-opacity="0" result="BackgroundImageFix"/>
            <feColorMatrix in="SourceAlpha" type="matrix" values="0 0 0 0 0 0 0 0 0 0 0 0 0 0 0 0 0 0 127 0" result="hardAlpha"/>
            <feOffset dy="4"/>
            <feGaussianBlur stdDeviation="2"/>
            <feComposite in2="hardAlpha" operator="out"/>
            <feColorMatrix type="matrix" values="0 0 0 0 0 0 0 0 0 0 0 0 0 0 0 0 0 0 0.25 0"/>
            <feBlend mode="normal" in2="BackgroundImageFix" result="effect1_dropShadow_57_16"/>
            <feBlend mode="normal" in="SourceGraphic" in2="effect1_dropShadow_57_16" result="shape"/>
        </filter>
        <filter id="filter1_d_57_16" x="373" y="113" width="286.964" height="293.212" filterUnits="userSpaceOnUse" color-interpolation-filters="sRGB">
            <feFlood flood-opacity="0" result="BackgroundImageFix"/>
            <feColorMatrix in="SourceAlpha" type="matrix" values="0 0 0 0 0 0 0 0 0 0 0 0 0 0 0 0 0 0 127 0" result="hardAlpha"/>
            <feOffset dy="4"/>
            <feGaussianBlur stdDeviation="2"/>
            <feComposite in2="hardAlpha" operator="out"/>
            <feColorMatrix type="matrix" values="0 0 0 0 0 0 0 0 0 0 0 0 0 0 0 0 0 0 0.25 0"/>
            <feBlend mode="normal" in2="BackgroundImageFix" result="effect1_dropShadow_57_16"/>
            <feBlend mode="normal" in="SourceGraphic" in2="effect1_dropShadow_57_16" result="shape"/>
        </filter>
        <filter id="filter2_d_57_16" x="618" y="364" width="76" height="76" filterUnits="userSpaceOnUse" color-interpolation-filters="sRGB">
            <feFlood flood-opacity="0" result="BackgroundImageFix"/>
            <feColorMatrix in="SourceAlpha" type="matrix" values="0 0 0 0 0 0 0 0 0 0 0 0 0 0 0 0 0 0 127 0" result="hardAlpha"/>
            <feOffset dy="4"/>
            <feGaussianBlur stdDeviation="2"/>
            <feComposite in2="hardAlpha" operator="out"/>
            <feColorMatrix type="matrix" values="0 0 0 0 0 0 0 0 0 0 0 0 0 0 0 0 0 0 0.25 0"/>
            <feBlend mode="normal" in2="BackgroundImageFix" result="effect1_dropShadow_57_16"/>
            <feBlend mode="normal" in="SourceGraphic" in2="effect1_dropShadow_57_16" result="shape"/>
        </filter>
        <linearGradient id="paint0_linear_57_16" x1="0" y1="512" x2="409.6" y2="-307.2" gradientUnits="userSpaceOnUse">
            <stop stop-color="#111111"/>
            <stop offset="1" stop-color="#331133"/>
        </linearGradient>
        <linearGradient id="paint1_linear_57_16" x1="516.482" y1="113" x2="516.482" y2="398.212" gradientUnits="userSpaceOnUse">
            <stop stop-color="#AA2222"/>
            <stop offset="1" stop-color="#D9DD11"/>
        </linearGradient>
        <linearGradient id="paint2_linear_57_16" x1="516.482" y1="113" x2="516.482" y2="398.212" gradientUnits="userSpaceOnUse">
            <stop stop-color="#AA2222"/>
            <stop offset="1" stop-color="#D9DD11"/>
        </linearGradient>
        <linearGradient id="paint3_linear_57_16" x1="656" y1="364" x2="656" y2="432" gradientUnits="userSpaceOnUse">
            <stop stop-color="#22AA58"/>
            <stop offset="1" stop-color="#11B8DD"/>
        </linearGradient>
    </defs>
</svg>
